IKResults
version=1
nRows=10
nColumns=63
inDegrees=yes

Units are S.I. units (second, meters, Newtons, ...)
If the header above contains a line with 'inDegrees', this indicates whether rotational values are in degrees (yes) or radians (no).

endheader
time	pelvis_tilt	pelvis_list	pelvis_rotation	pelvis_tx	pelvis_ty	pelvis_tz	hip_flexion_r	hip_adduction_r	hip_rotation_r	knee_angle_r	knee_angle_r_beta	ankle_angle_r	subtalar_angle_r	mtp_angle_r	hip_flexion_l	hip_adduction_l	hip_rotation_l	knee_angle_l	knee_angle_l_beta	ankle_angle_l	subtalar_angle_l	mtp_angle_l	L5_S1_Flex_Ext	L5_S1_Lat_Bending	L5_S1_axial_rotation	L4_L5_Flex_Ext	L4_L5_Lat_Bending	L4_L5_axial_rotation	L3_L4_Flex_Ext	L3_L4_Lat_Bending	L3_L4_axial_rotation	L2_L3_Flex_Ext	L2_L3_Lat_Bending	L2_L3_axial_rotation	L1_L2_Flex_Ext	L1_L2_Lat_Bending	L1_L2_axial_rotation	L1_T12_Flex_Ext	L1_T12_Lat_Bending	L1_T12_axial_rotation	Abs_r3	Abs_r2	Abs_r1	Abs_t1	Abs_t2	neck_flexion	neck_bending	neck_rotation	arm_flex_r	arm_add_r	arm_rot_r	elbow_flex_r	pro_sup_r	wrist_flex_r	wrist_dev_r	arm_flex_l	arm_add_l	arm_rot_l	elbow_flex_l	pro_sup_l	wrist_flex_l	wrist_dev_l
      0.03333333	     -3.31621820	     -2.15918540	      5.61043326	     -0.13066289	      0.94489319	     -0.30278697	     -1.57809081	     -1.20854369	    -12.94195490	      7.20468982	      0.12574556	     12.76766162	    -13.34403628	      0.00000000	     -0.74455113	     -7.45313030	    -16.49401976	      5.97221754	      0.10423486	     15.92021454	     -0.83731472	      0.00000000	      0.67745068	      0.12111693	     -1.78308489	      1.25809366	      0.16108551	     -1.89452769	      1.11298372	      0.29448370	     -1.89452769	      0.77425838	      0.29448370	     -1.56019928	      0.62908070	      0.24698164	     -1.44875647	      0.38709532	      0.18761012	     -1.33731367	      4.83896245	      1.37009891	     -9.91698321	      0.00000000	      0.00000000	     23.12563082	      1.06246706	     -6.76953133	      4.46932219	    -13.34691887	     81.95601113	     14.19800687	     89.99559364	      0.00000000	      0.00000000	     -8.99705346	     -7.90885685	    -14.22195227	     32.64894421	     89.99559364	      0.00000000	      0.00000000
      0.06666667	     -3.31348709	     -2.15932992	      5.61000520	     -0.13069201	      0.94492951	     -0.30277847	     -1.57688084	     -1.20969294	    -12.94146933	      7.20614593	      0.12577097	     12.76800796	    -13.34085632	      0.00000000	     -0.74433817	     -7.45373699	    -16.49332508	      5.97443630	      0.10427358	     15.92009978	     -0.83722485	      0.00000000	      0.67740250	      0.12110479	     -1.78315738	      1.25800419	      0.16106938	     -1.89460471	      1.11290457	      0.29445420	     -1.89460471	      0.77420332	      0.29445420	     -1.56026270	      0.62903596	      0.24695690	     -1.44881537	      0.38706779	      0.18759133	     -1.33736803	      4.83861834	      1.36996166	     -9.91738638	      0.00000000	      0.00000000	     23.12119876	      1.06244939	     -6.76933529	      4.46789499	    -13.34777449	     81.95616433	     14.19957997	     89.99559364	      0.00000000	      0.00000000	     -8.99767096	     -7.90809088	    -14.22173882	     32.64945432	     89.99559364	      0.00000000	      0.00000000
      0.10000000	     -3.30840535	     -2.15932628	      5.60885584	     -0.13075963	      0.94499835	     -0.30276946	     -1.57401717	     -1.21208820	    -12.94079644	      7.20761156	      0.12579655	     12.76861198	    -13.33692281	      0.00000000	     -0.74495273	     -7.45439695	    -16.49247639	      5.97739196	      0.10432517	     15.92030381	     -0.83718135	      0.00000000	      0.67702931	      0.12121281	     -1.78343792	      1.25731114	      0.16121304	     -1.89490279	      1.11229146	      0.29471683	     -1.89490279	      0.77377680	      0.29471683	     -1.56050818	      0.62868942	      0.24717716	     -1.44904331	      0.38685455	      0.18775864	     -1.33757844	      4.83595267	      1.37118356	     -9.91894667	      0.00000000	      0.00000000	     23.11553809	      1.06250875	     -6.76907673	      4.46323655	    -13.34932467	     81.95665256	     14.20146895	     89.99559364	      0.00000000	      0.00000000	     -8.99949148	     -7.90713967	    -14.22144602	     32.64985687	     89.99559364	      0.00000000	      0.00000000
      0.13333333	     -3.29784615	     -2.15926785	      5.59599917	     -0.13089904	      0.94510149	     -0.30279607	     -1.56599026	     -1.22109990	    -12.93914205	      7.20831774	      0.12580888	     12.77088565	    -13.33232511	      0.00000000	     -0.74936204	     -7.45230592	    -16.49120586	      5.98283180	      0.10442011	     15.92356777	     -0.83787772	      0.00000000	      0.67235400	      0.12241421	     -1.78556036	      1.24862862	      0.16281089	     -1.89715789	      1.10461039	      0.29763790	     -1.89715789	      0.76843339	      0.29763790	     -1.56236532	      0.62434793	      0.24962705	     -1.45076780	      0.38418308	      0.18961960	     -1.33917027	      4.80255742	      1.38477398	     -9.93075108	      0.00000000	      0.00000000	     23.10618571	      1.06350955	     -6.76796609	      4.43122950	    -13.36110920	     81.95980057	     14.20113971	     89.99559364	      0.00000000	      0.00000000	     -9.01214919	     -7.90142202	    -14.21950469	     32.64768319	     89.99559364	      0.00000000	      0.00000000
      0.16666667	     -3.28727317	     -2.16046802	      5.58373295	     -0.13106308	      0.94523869	     -0.30283304	     -1.55440915	     -1.23113981	    -12.93611415	      7.20897482	      0.12582035	     12.77080989	    -13.32886077	      0.00000000	     -0.75423945	     -7.44881099	    -16.49048622	      5.98730045	      0.10449811	     15.93100581	     -0.83994568	      0.00000000	      0.66772287	      0.12402943	     -1.78723275	      1.24002815	      0.16495914	     -1.89893479	      1.09700191	      0.30156516	     -1.89893479	      0.76314047	      0.30156516	     -1.56382865	      0.62004746	      0.25292082	     -1.45212661	      0.38153685	      0.19212159	     -1.34042456	      4.76947772	      1.40304574	     -9.94005236	      0.00000000	      0.00000000	     23.09806715	      1.06554179	     -6.76564165	      4.40753614	    -13.37754887	     81.96154854	     14.19751515	     89.99559364	      0.00000000	      0.00000000	     -9.02546234	     -7.89148071	    -14.21619306	     32.64431353	     89.99559364	      0.00000000	      0.00000000
      0.20000000	     -3.27365045	     -2.16182275	      5.56799049	     -0.13126850	      0.94539551	     -0.30290105	     -1.54121924	     -1.24231778	    -12.93173318	      7.21216519	      0.12587603	     12.76706876	    -13.32460143	      0.00000000	     -0.76214763	     -7.44402997	    -16.49008066	      5.99215070	      0.10458276	     15.94455697	     -0.84321119	      0.00000000	      0.66088398	      0.12643378	     -1.78924433	      1.22732764	      0.16815692	     -1.90107210	      1.08576629	      0.30741109	     -1.90107210	      0.75532430	      0.30741109	     -1.56558879	      0.61369687	      0.25782376	     -1.45376102	      0.37762911	      0.19584592	     -1.34193325	      4.72062819	      1.43024417	     -9.95124019	      0.00000000	      0.00000000	     23.08870822	      1.06827446	     -6.76169187	      4.38275438	    -13.40069009	     81.96265704	     14.19205836	     89.99559364	      0.00000000	      0.00000000	     -9.04055237	     -7.87535170	    -14.21083173	     32.64252132	     89.99559364	      0.00000000	      0.00000000
      0.23333333	     -2.98155718	     -2.34713867	      5.20444788	     -0.13211861	      0.94590641	     -0.30290932	     -1.60126203	     -1.09699115	    -12.49867863	      7.46011510	      0.13020357	     12.60329057	    -13.49775898	      0.00000000	     -1.07077491	     -7.62133978	    -16.63902451	      6.03360523	      0.10530628	     16.14457754	     -1.17376850	      0.00000000	      0.58748551	      0.16283937	     -1.74114598	      1.09101935	      0.21657636	     -1.84996760	      0.96517995	      0.39592764	     -1.84996760	      0.67143719	      0.39592764	     -1.52350273	      0.54553905	      0.33206204	     -1.41468111	      0.33568922	      0.25223818	     -1.30585949	      4.19635028	      1.84207150	     -9.68373160	      0.00000000	      0.00000000	     23.35728504	      1.06468969	     -6.27425255	      4.60397820	    -13.56829903	     81.77889580	     14.17216552	     89.99559364	      0.00000000	      0.00000000	     -8.83534948	     -7.70286947	    -14.11196246	     32.53831930	     89.99559364	      0.00000000	      0.00000000
      0.26666667	     -2.98337198	     -2.34457817	      5.19389442	     -0.13243275	      0.94610277	     -0.30297974	     -1.56779431	     -1.10939425	    -12.49750046	      7.45823958	      0.13017084	     12.60447525	    -13.49309322	      0.00000000	     -1.05928010	     -7.61255804	    -16.63476112	      6.03481996	      0.10532748	     16.14589005	     -1.17223072	      0.00000000	      0.57543038	      0.16502374	     -1.74310758	      1.06863175	      0.21948158	     -1.85205180	      0.94537456	      0.40123873	     -1.85205180	      0.65765938	      0.40123873	     -1.52521913	      0.53434465	      0.33651641	     -1.41627491	      0.32880092	      0.25562178	     -1.30733069	      4.11024163	      1.86678157	     -9.69464143	      0.00000000	      0.00000000	     23.33871279	      1.06763939	     -6.27417379	      4.56827179	    -13.58800615	     81.78060164	     14.17046570	     89.99559364	      0.00000000	      0.00000000	     -8.84942703	     -7.70613809	    -14.11157644	     32.54212040	     89.99559364	      0.00000000	      0.00000000
      0.30000000	     -2.73665214	     -2.50576000	      4.98330927	     -0.13377520	      0.94659386	     -0.30318632	     -1.50036589	     -1.00024355	    -12.30057846	      7.84092333	      0.13684993	     12.49886381	    -13.79920091	      0.00000000	     -1.28825234	     -7.75700907	    -16.67754337	      6.01209771	      0.10493090	     16.22057707	     -1.35757990	      0.00000000	      0.49483846	      0.19470891	     -1.72034484	      0.91896451	      0.25896286	     -1.82786640	      0.81297011	      0.47341526	     -1.82786640	      0.56555088	      0.47341526	     -1.50530174	      0.45950700	      0.39705042	     -1.39778018	      0.28275070	      0.30160411	     -1.29025863	      3.53458166	      2.20258618	     -9.56804191	      0.00000000	      0.00000000	     23.49359464	      1.14476130	     -6.09546837	      4.83730889	    -13.71066160	     81.54362918	     14.08801626	     89.99559364	      0.00000000	      0.00000000	     -8.68607476	     -7.59021238	    -14.04459048	     32.75209064	     89.99559364	      0.00000000	      0.00000000
      0.33333333	     -2.76401334	     -2.49968136	      4.95867763	     -0.13424053	      0.94677521	     -0.30331724	     -1.43649996	     -1.02348972	    -12.29532730	      7.83361959	      0.13672245	     12.48679655	    -13.79286406	      0.00000000	     -1.25206762	     -7.73455933	    -16.67172693	      6.00706560	      0.10484307	     16.22413589	     -1.35526311	      0.00000000	      0.47585457	      0.19780721	     -1.72330112	      0.88370952	      0.26308359	     -1.83100744	      0.78178147	      0.48094845	     -1.83100744	      0.54385419	      0.48094845	     -1.50788848	      0.44187855	      0.40336846	     -1.40018216	      0.27190330	      0.30640337	     -1.29247584	      3.39898161	      2.23763473	     -9.58448382	      0.00000000	      0.00000000	     23.46948776	      1.14805320	     -6.09469706	      4.81384048	    -13.72363420	     81.54076532	     14.08715786	     89.99559364	      0.00000000	      0.00000000	     -8.69665817	     -7.58348810	    -14.04190788	     32.75926659	     89.99559364	      0.00000000	      0.00000000
